<?xml version="1.0" encoding="UTF-8" standalone="no"?>
<!-- Uploaded to: SVG Repo, www.svgrepo.com, Generator: SVG Repo Mixer Tools -->

<svg
   fill="#000000"
   width="800px"
   height="800px"
   viewBox="0 0 24 24"
   version="1.1"
   id="svg1"
   sodipodi:docname="emoji-dead-svgrepo-com.svg"
   inkscape:version="1.3-alpha (2a5ddc9, 2023-03-29)"
   xmlns:inkscape="http://www.inkscape.org/namespaces/inkscape"
   xmlns:sodipodi="http://sodipodi.sourceforge.net/DTD/sodipodi-0.dtd"
   xmlns="http://www.w3.org/2000/svg"
   xmlns:svg="http://www.w3.org/2000/svg">
  <defs
     id="defs1" />
  <sodipodi:namedview
     id="namedview1"
     pagecolor="#ffffff"
     bordercolor="#666666"
     borderopacity="1.0"
     inkscape:showpageshadow="2"
     inkscape:pageopacity="0.0"
     inkscape:pagecheckerboard="0"
     inkscape:deskcolor="#d1d1d1"
     inkscape:zoom="0.3769763"
     inkscape:cx="400.55568"
     inkscape:cy="250.67889"
     inkscape:window-width="1452"
     inkscape:window-height="773"
     inkscape:window-x="1970"
     inkscape:window-y="89"
     inkscape:window-maximized="0"
     inkscape:current-layer="svg1" />
  <path
     d="M17.707,8.707l-.793.793.793.793a1,1,0,1,1-1.414,1.414l-.793-.793-.793.793a1,1,0,0,1-1.414-1.414l.793-.793-.793-.793a1,1,0,1,1,1.414-1.414l.793.793.793-.793a1,1,0,1,1,1.414,1.414Zm-10,3,.793-.793.793.793a1,1,0,0,0,1.414-1.414L9.914,9.5l.793-.793A1,1,0,1,0,9.293,7.293L8.5,8.086l-.793-.793A1,1,0,1,0,6.293,8.707l.793.793-.793.793a1,1,0,1,0,1.414,1.414ZM23,12A11,11,0,1,1,12,1,11.013,11.013,0,0,1,23,12Zm-2,0a9,9,0,1,0-9,9A9.011,9.011,0,0,0,21,12Zm-5,2H8a1,1,0,0,0,0,2h2v1a2,2,0,0,0,4,0V16h2a1,1,0,0,0,0-2Z"
     id="path1"
     style="fill:#ffffff" />
</svg>
