<?xml version="1.0" encoding="UTF-8" standalone="no"?>
<!-- Uploaded to: SVG Repo, www.svgrepo.com, Generator: SVG Repo Mixer Tools -->

<svg
   fill="#000000"
   width="800px"
   height="800px"
   viewBox="0 0 24 24"
   version="1.1"
   id="svg1"
   sodipodi:docname="emoji-sad-svgrepo-com.svg"
   inkscape:version="1.3-alpha (2a5ddc9, 2023-03-29)"
   xmlns:inkscape="http://www.inkscape.org/namespaces/inkscape"
   xmlns:sodipodi="http://sodipodi.sourceforge.net/DTD/sodipodi-0.dtd"
   xmlns="http://www.w3.org/2000/svg"
   xmlns:svg="http://www.w3.org/2000/svg">
  <defs
     id="defs1" />
  <sodipodi:namedview
     id="namedview1"
     pagecolor="#ffffff"
     bordercolor="#666666"
     borderopacity="1.0"
     inkscape:showpageshadow="2"
     inkscape:pageopacity="0.0"
     inkscape:pagecheckerboard="0"
     inkscape:deskcolor="#d1d1d1"
     inkscape:zoom="1.06625"
     inkscape:cx="159.43728"
     inkscape:cy="400"
     inkscape:window-width="1452"
     inkscape:window-height="773"
     inkscape:window-x="1970"
     inkscape:window-y="89"
     inkscape:window-maximized="0"
     inkscape:current-layer="svg1" />
  <path
     d="M8,11V9a1,1,0,0,1,2,0v2a1,1,0,0,1-2,0Zm7,1a1,1,0,0,0,1-1V9a1,1,0,0,0-2,0v2A1,1,0,0,0,15,12Zm-3,2a6.036,6.036,0,0,0-4.775,2.368,1,1,0,1,0,1.55,1.264,4,4,0,0,1,6.45,0,1,1,0,0,0,1.55-1.264A6.036,6.036,0,0,0,12,14Zm11-2A11,11,0,1,1,12,1,11.013,11.013,0,0,1,23,12Zm-2,0a9,9,0,1,0-9,9A9.01,9.01,0,0,0,21,12Z"
     id="path1"
     style="fill:#ffffff" />
</svg>
